# xmcd CD database file
#
# Track frame offsets:
#	150
#	14043
#	31498
#	57568
#	80655
#	100845
#	124802
#	139733
#	167046
#	181803
#	202522
#	243641
#
# Disc length: 4461 seconds
#
# Revision: 1
# Processed by: cddbd v1.5.2PL0 Copyright (c) Steve Scherf et al.
# Submitted via: CDex 1.51
#
DISCID=a3116b0c
DTITLE=Patrick Verbeke - Capturé Live - CD1
DYEAR=2005
DGENRE=Blues
TTITLE0=Louise (Live)
TTITLE1=Walking By Myself (Live)
TTITLE2=De Quoi j'Vais m'Plaindre (Live)
TTITLE3=St. James Infirmary (Live)
TTITLE4=Delta Queen Part.1 (Live)
TTITLE5=Delta Queen Part.2 (Live)
TTITLE6=Hound Dog (Live)
TTITLE7=La Tangente (Live)
TTITLE8=Acadiana (Live)
TTITLE9=Rocky Road Blues (Live)
TTITLE10=C C Rider (Live)
TTITLE11=Evangelina (Live)
EXTD=YEAR: 2005
EXTT0=
EXTT1=
EXTT2=
EXTT3=
EXTT4=
EXTT5=
EXTT6=
EXTT7=
EXTT8=
EXTT9=
EXTT10=
EXTT11=
PLAYORDER=
